<mxfile host="app.diagrams.net" modified="2024-06-19T14:32:15.547Z" agent="Mozilla/5.0 (Macintosh; Intel Mac OS X 10_15_7) AppleWebKit/537.36 (KHTML, like Gecko) Chrome/125.0.0.0 Safari/537.36" version="24.4.13" etag="hQuhtBMplzmC5xlVsoIv" type="github">
  <diagram name="Page-1" id="pJgr3biJwaTj-BZPMf1E">
    <mxGraphModel>
      <root>
        <mxCell id="0" />
        <mxCell id="1" parent="0" />
      </root>
    </mxGraphModel>
  </diagram>
</mxfile>
